<svg width="250" height="61" viewBox="0 0 250 61" fill="none" xmlns="http://www.w3.org/2000/svg">
<path d="M7.18455 33.8188C7.18455 23.0217 15.2548 14.1096 25.6923 12.7855C24.8097 12.6736 23.9101 12.6157 22.997 12.6157C11.2869 12.6157 1.79395 22.1087 1.79395 33.8188C1.79395 45.5289 11.2869 55.0218 22.997 55.0218C23.9101 55.0218 24.8097 54.964 25.6923 54.852C15.2548 53.5279 7.18455 44.6158 7.18455 33.8188V33.8188Z" fill="#FFC976" fill-opacity="0.6"/>
<path d="M38.3633 29.2383C34.1524 29.2383 30.7266 25.7762 30.7266 21.5207C30.7266 18.2596 31.1631 12.8782 31.1817 12.6507C31.2625 11.6616 32.1312 10.9258 33.1189 11.0061C34.108 11.0869 34.8444 11.9542 34.7636 12.9433C34.7592 12.9976 34.3203 18.4069 34.3203 21.5207C34.3203 23.7946 36.134 25.6446 38.3633 25.6446C40.5926 25.6446 42.4063 23.7946 42.4063 21.5207C42.4063 18.4047 41.9675 12.9976 41.963 12.9433C41.8822 11.9542 42.6185 11.0869 43.6076 11.0061C44.5957 10.9249 45.464 11.6615 45.5449 12.6507C45.5635 12.8782 46 18.2596 46 21.5207C46 25.7762 42.5742 29.2383 38.3633 29.2383V29.2383ZM40.1602 19.7149V12.797C40.1602 11.8046 39.3557 11.0001 38.3633 11.0001C37.3709 11.0001 36.5664 11.8046 36.5664 12.797V19.7149C36.5664 20.7073 37.3709 21.5118 38.3633 21.5118C39.3557 21.5118 40.1602 20.7073 40.1602 19.7149ZM32.5475 54.9525C33.4512 54.5422 33.8511 53.4771 33.4407 52.5735C33.0306 51.67 31.9655 51.2699 31.0618 51.6803C28.5748 52.8094 25.7871 53.4063 23 53.4063C12.2993 53.4063 3.59375 44.7007 3.59375 34.0001C3.59375 23.2995 12.2993 14.5939 23 14.5939C23.8815 14.5939 24.7675 14.6535 25.6336 14.7709C26.6164 14.9041 27.5222 14.2151 27.6556 13.2318C27.789 12.2485 27.0998 11.3431 26.1165 11.2098C25.0909 11.0707 24.0425 11.0002 23 11.0002C16.8565 11.0002 11.0807 13.3926 6.73649 17.7366C2.39236 22.0808 0 27.8566 0 34.0001C0 40.1436 2.39245 45.9193 6.73649 50.2635C11.0807 54.6077 16.8565 57 23 57C26.2958 56.9999 29.5974 56.2919 32.5475 54.9525V54.9525ZM23.3841 48.281C24.3762 48.2574 25.1614 47.4341 25.1379 46.4421C25.1145 45.4499 24.2937 44.6659 23.2989 44.6882C23.2134 44.6902 23.1281 44.6912 23.0429 44.6912C17.2878 44.6912 12.5386 40.0802 12.4015 34.2968C12.334 31.4538 13.3779 28.7547 15.3407 26.6966C17.3036 24.6386 19.9506 23.468 22.7941 23.4006C23.6561 23.3805 24.6091 23.487 25.5517 23.7096C26.5183 23.9379 27.4855 23.3396 27.7137 22.3739C27.9418 21.4081 27.3438 20.4402 26.3779 20.2121C25.1412 19.92 23.8721 19.7797 22.7089 19.8078C18.9058 19.8979 15.3656 21.4636 12.7402 24.2162C10.1148 26.969 8.71853 30.5792 8.80882 34.382C8.99228 42.1179 15.3437 48.2849 23.0418 48.2849C23.1552 48.2851 23.2702 48.2837 23.3841 48.281Z" fill="#FA942A"/>
<path d="M38.3613 56.998C37.3689 56.998 36.5645 56.1935 36.5645 55.2011V34.6269C36.5645 33.6345 37.3689 32.8301 38.3613 32.8301C39.3537 32.8301 40.1582 33.6345 40.1582 34.6269V55.2011C40.1582 56.1935 39.3537 56.998 38.3613 56.998Z" fill="#223344"/>
<path d="M79.052 14.98V40H74.948V22.864L67.316 40H64.472L56.804 22.864V40H52.7V14.98H57.128L65.912 34.6L74.66 14.98H79.052ZM83.0781 29.992C83.0781 28 83.4861 26.236 84.3021 24.7C85.1421 23.164 86.2701 21.976 87.6861 21.136C89.1261 20.272 90.7101 19.84 92.4381 19.84C93.9981 19.84 95.3541 20.152 96.5061 20.776C97.6821 21.376 98.6181 22.132 99.3141 23.044V20.164H103.454V40H99.3141V37.048C98.6181 37.984 97.6701 38.764 96.4701 39.388C95.2701 40.012 93.9021 40.324 92.3661 40.324C90.6621 40.324 89.1021 39.892 87.6861 39.028C86.2701 38.14 85.1421 36.916 84.3021 35.356C83.4861 33.772 83.0781 31.984 83.0781 29.992ZM99.3141 30.064C99.3141 28.696 99.0261 27.508 98.4501 26.5C97.8981 25.492 97.1661 24.724 96.2541 24.196C95.3421 23.668 94.3581 23.404 93.3021 23.404C92.2461 23.404 91.2621 23.668 90.3501 24.196C89.4381 24.7 88.6941 25.456 88.1181 26.464C87.5661 27.448 87.2901 28.624 87.2901 29.992C87.2901 31.36 87.5661 32.56 88.1181 33.592C88.6941 34.624 89.4381 35.416 90.3501 35.968C91.2861 36.496 92.2701 36.76 93.3021 36.76C94.3581 36.76 95.3421 36.496 96.2541 35.968C97.1661 35.44 97.8981 34.672 98.4501 33.664C99.0261 32.632 99.3141 31.432 99.3141 30.064ZM132.857 19.84C134.417 19.84 135.809 20.164 137.033 20.812C138.281 21.46 139.253 22.42 139.949 23.692C140.669 24.964 141.029 26.5 141.029 28.3V40H136.961V28.912C136.961 27.136 136.517 25.78 135.629 24.844C134.741 23.884 133.529 23.404 131.993 23.404C130.457 23.404 129.233 23.884 128.321 24.844C127.433 25.78 126.989 27.136 126.989 28.912V40H122.921V28.912C122.921 27.136 122.477 25.78 121.589 24.844C120.701 23.884 119.489 23.404 117.953 23.404C116.417 23.404 115.193 23.884 114.281 24.844C113.393 25.78 112.949 27.136 112.949 28.912V40H108.845V20.164H112.949V22.432C113.621 21.616 114.473 20.98 115.505 20.524C116.537 20.068 117.641 19.84 118.817 19.84C120.401 19.84 121.817 20.176 123.065 20.848C124.313 21.52 125.273 22.492 125.945 23.764C126.545 22.564 127.481 21.616 128.753 20.92C130.025 20.2 131.393 19.84 132.857 19.84ZM144.883 29.992C144.883 28 145.291 26.236 146.107 24.7C146.947 23.164 148.075 21.976 149.491 21.136C150.931 20.272 152.515 19.84 154.243 19.84C155.803 19.84 157.159 20.152 158.311 20.776C159.487 21.376 160.423 22.132 161.119 23.044V20.164H165.259V40H161.119V37.048C160.423 37.984 159.475 38.764 158.275 39.388C157.075 40.012 155.707 40.324 154.171 40.324C152.467 40.324 150.907 39.892 149.491 39.028C148.075 38.14 146.947 36.916 146.107 35.356C145.291 33.772 144.883 31.984 144.883 29.992ZM161.119 30.064C161.119 28.696 160.831 27.508 160.255 26.5C159.703 25.492 158.971 24.724 158.059 24.196C157.147 23.668 156.163 23.404 155.107 23.404C154.051 23.404 153.067 23.668 152.155 24.196C151.243 24.7 150.499 25.456 149.923 26.464C149.371 27.448 149.095 28.624 149.095 29.992C149.095 31.36 149.371 32.56 149.923 33.592C150.499 34.624 151.243 35.416 152.155 35.968C153.091 36.496 154.075 36.76 155.107 36.76C156.163 36.76 157.147 36.496 158.059 35.968C158.971 35.44 159.703 34.672 160.255 33.664C160.831 32.632 161.119 31.432 161.119 30.064ZM194.661 19.84C196.221 19.84 197.613 20.164 198.837 20.812C200.085 21.46 201.057 22.42 201.753 23.692C202.473 24.964 202.833 26.5 202.833 28.3V40H198.765V28.912C198.765 27.136 198.321 25.78 197.433 24.844C196.545 23.884 195.333 23.404 193.797 23.404C192.261 23.404 191.037 23.884 190.125 24.844C189.237 25.78 188.793 27.136 188.793 28.912V40H184.725V28.912C184.725 27.136 184.281 25.78 183.393 24.844C182.505 23.884 181.293 23.404 179.757 23.404C178.221 23.404 176.997 23.884 176.085 24.844C175.197 25.78 174.753 27.136 174.753 28.912V40H170.649V20.164H174.753V22.432C175.425 21.616 176.277 20.98 177.309 20.524C178.341 20.068 179.445 19.84 180.621 19.84C182.205 19.84 183.621 20.176 184.869 20.848C186.117 21.52 187.077 22.492 187.749 23.764C188.349 22.564 189.285 21.616 190.557 20.92C191.829 20.2 193.197 19.84 194.661 19.84ZM225.911 20.164L213.743 49.324H209.495L213.527 39.676L205.715 20.164H210.287L215.867 35.284L221.663 20.164H225.911ZM246.973 20.164V40H242.869V37.66C242.221 38.476 241.369 39.124 240.313 39.604C239.281 40.06 238.177 40.288 237.001 40.288C235.441 40.288 234.037 39.964 232.789 39.316C231.565 38.668 230.593 37.708 229.873 36.436C229.177 35.164 228.829 33.628 228.829 31.828V20.164H232.897V31.216C232.897 32.992 233.341 34.36 234.229 35.32C235.117 36.256 236.329 36.724 237.865 36.724C239.401 36.724 240.613 36.256 241.501 35.32C242.413 34.36 242.869 32.992 242.869 31.216V20.164H246.973Z" fill="#FA942A"/>
<path d="M55.212 55.077C54.706 55.077 54.2587 54.989 53.87 54.813C53.4887 54.637 53.188 54.3913 52.968 54.076C52.748 53.7607 52.6307 53.4087 52.616 53.02H53.43C53.4667 53.394 53.6317 53.724 53.925 54.01C54.2183 54.2887 54.6473 54.428 55.212 54.428C55.7327 54.428 56.1433 54.296 56.444 54.032C56.752 53.7607 56.906 53.4197 56.906 53.009C56.906 52.679 56.8217 52.415 56.653 52.217C56.4843 52.0117 56.2753 51.8613 56.026 51.766C55.7767 51.6633 55.432 51.5533 54.992 51.436C54.4787 51.2967 54.0717 51.161 53.771 51.029C53.4703 50.897 53.2137 50.6917 53.001 50.413C52.7883 50.1343 52.682 49.7567 52.682 49.28C52.682 48.884 52.7847 48.532 52.99 48.224C53.1953 47.9087 53.485 47.663 53.859 47.487C54.233 47.311 54.662 47.223 55.146 47.223C55.8573 47.223 56.4293 47.399 56.862 47.751C57.302 48.0957 57.555 48.543 57.621 49.093H56.785C56.7337 48.7777 56.5613 48.499 56.268 48.257C55.9747 48.0077 55.5787 47.883 55.08 47.883C54.618 47.883 54.233 48.0077 53.925 48.257C53.617 48.499 53.463 48.8327 53.463 49.258C53.463 49.5807 53.5473 49.841 53.716 50.039C53.8847 50.237 54.0937 50.3873 54.343 50.49C54.5997 50.5927 54.9443 50.7027 55.377 50.82C55.8757 50.9593 56.279 51.0987 56.587 51.238C56.895 51.37 57.1553 51.5753 57.368 51.854C57.5807 52.1327 57.687 52.5067 57.687 52.976C57.687 53.3353 57.5917 53.6763 57.401 53.999C57.2103 54.3217 56.928 54.582 56.554 54.78C56.18 54.978 55.7327 55.077 55.212 55.077ZM59.9339 50.314C60.1246 49.9107 60.4253 49.577 60.8359 49.313C61.2539 49.0417 61.7489 48.906 62.3209 48.906C62.8636 48.906 63.3513 49.0343 63.7839 49.291C64.2239 49.5403 64.5649 49.8997 64.8069 50.369C65.0563 50.831 65.1809 51.37 65.1809 51.986C65.1809 52.602 65.0563 53.1447 64.8069 53.614C64.5649 54.0833 64.2239 54.4463 63.7839 54.703C63.3513 54.9597 62.8636 55.088 62.3209 55.088C61.7563 55.088 61.2649 54.956 60.8469 54.692C60.4289 54.4207 60.1246 54.0833 59.9339 53.68V57.838H59.1749V48.994H59.9339V50.314ZM64.3999 51.986C64.3999 51.4873 64.3009 51.0583 64.1029 50.699C63.9123 50.3323 63.6483 50.0537 63.3109 49.863C62.9736 49.6723 62.5923 49.577 62.1669 49.577C61.7563 49.577 61.3786 49.676 61.0339 49.874C60.6966 50.072 60.4289 50.3543 60.2309 50.721C60.0329 51.0877 59.9339 51.513 59.9339 51.997C59.9339 52.481 60.0329 52.9063 60.2309 53.273C60.4289 53.6397 60.6966 53.922 61.0339 54.12C61.3786 54.318 61.7563 54.417 62.1669 54.417C62.5923 54.417 62.9736 54.3217 63.3109 54.131C63.6483 53.933 63.9123 53.6507 64.1029 53.284C64.3009 52.91 64.3999 52.4773 64.3999 51.986ZM72.0318 51.689C72.0318 51.953 72.0244 52.1547 72.0098 52.294H67.0268C67.0488 52.7487 67.1588 53.1373 67.3568 53.46C67.5548 53.7827 67.8151 54.0283 68.1378 54.197C68.4604 54.3583 68.8124 54.439 69.1938 54.439C69.6924 54.439 70.1104 54.318 70.4478 54.076C70.7924 53.834 71.0198 53.5077 71.1298 53.097H71.9438C71.7971 53.6837 71.4818 54.164 70.9978 54.538C70.5211 54.9047 69.9198 55.088 69.1938 55.088C68.6291 55.088 68.1231 54.9633 67.6758 54.714C67.2284 54.4573 66.8764 54.098 66.6198 53.636C66.3704 53.1667 66.2458 52.6203 66.2458 51.997C66.2458 51.3737 66.3704 50.8273 66.6198 50.358C66.8691 49.8887 67.2174 49.5293 67.6648 49.28C68.1121 49.0307 68.6218 48.906 69.1938 48.906C69.7658 48.906 70.2644 49.0307 70.6898 49.28C71.1224 49.5293 71.4524 49.8667 71.6798 50.292C71.9144 50.71 72.0318 51.1757 72.0318 51.689ZM71.2508 51.667C71.2581 51.2197 71.1664 50.8383 70.9758 50.523C70.7924 50.2077 70.5394 49.9693 70.2168 49.808C69.8941 49.6467 69.5421 49.566 69.1608 49.566C68.5888 49.566 68.1011 49.7493 67.6978 50.116C67.2944 50.4827 67.0708 50.9997 67.0268 51.667H71.2508ZM73.0885 51.997C73.0885 51.3737 73.2132 50.831 73.4625 50.369C73.7119 49.8997 74.0565 49.5403 74.4965 49.291C74.9365 49.0343 75.4389 48.906 76.0035 48.906C76.7442 48.906 77.3529 49.0893 77.8295 49.456C78.3135 49.8227 78.6252 50.3213 78.7645 50.952H77.9395C77.8369 50.5193 77.6132 50.182 77.2685 49.94C76.9312 49.6907 76.5095 49.566 76.0035 49.566C75.6002 49.566 75.2372 49.6577 74.9145 49.841C74.5919 50.0243 74.3352 50.2993 74.1445 50.666C73.9612 51.0253 73.8695 51.469 73.8695 51.997C73.8695 52.525 73.9612 52.9723 74.1445 53.339C74.3352 53.7057 74.5919 53.9807 74.9145 54.164C75.2372 54.3473 75.6002 54.439 76.0035 54.439C76.5095 54.439 76.9312 54.318 77.2685 54.076C77.6132 53.8267 77.8369 53.482 77.9395 53.042H78.7645C78.6252 53.658 78.3135 54.153 77.8295 54.527C77.3455 54.901 76.7369 55.088 76.0035 55.088C75.4389 55.088 74.9365 54.9633 74.4965 54.714C74.0565 54.4573 73.7119 54.098 73.4625 53.636C73.2132 53.1667 73.0885 52.6203 73.0885 51.997ZM80.5716 47.861C80.4176 47.861 80.2856 47.806 80.1756 47.696C80.0656 47.586 80.0106 47.4503 80.0106 47.289C80.0106 47.1277 80.0656 46.9957 80.1756 46.893C80.2856 46.783 80.4176 46.728 80.5716 46.728C80.7256 46.728 80.8576 46.783 80.9676 46.893C81.0776 46.9957 81.1326 47.1277 81.1326 47.289C81.1326 47.4503 81.0776 47.586 80.9676 47.696C80.8576 47.806 80.7256 47.861 80.5716 47.861ZM80.9566 48.994V55H80.1866V48.994H80.9566ZM82.3483 51.986C82.3483 51.37 82.4693 50.831 82.7113 50.369C82.9606 49.8997 83.3016 49.5403 83.7343 49.291C84.1743 49.0343 84.6693 48.906 85.2193 48.906C85.7913 48.906 86.2826 49.038 86.6933 49.302C87.1113 49.566 87.412 49.9033 87.5953 50.314V48.994H88.3653V55H87.5953V53.669C87.4046 54.0797 87.1003 54.4207 86.6823 54.692C86.2716 54.956 85.7803 55.088 85.2083 55.088C84.6656 55.088 84.1743 54.9597 83.7343 54.703C83.3016 54.4463 82.9606 54.0833 82.7113 53.614C82.4693 53.1447 82.3483 52.602 82.3483 51.986ZM87.5953 51.997C87.5953 51.513 87.4963 51.0877 87.2983 50.721C87.1003 50.3543 86.829 50.072 86.4843 49.874C86.147 49.676 85.773 49.577 85.3623 49.577C84.937 49.577 84.5556 49.6723 84.2183 49.863C83.881 50.0537 83.6133 50.3323 83.4153 50.699C83.2246 51.0583 83.1293 51.4873 83.1293 51.986C83.1293 52.4773 83.2246 52.91 83.4153 53.284C83.6133 53.6507 83.881 53.933 84.2183 54.131C84.5556 54.3217 84.937 54.417 85.3623 54.417C85.773 54.417 86.147 54.318 86.4843 54.12C86.829 53.922 87.1003 53.6397 87.2983 53.273C87.4963 52.9063 87.5953 52.481 87.5953 51.997ZM90.8932 46.86V55H90.1232V46.86H90.8932ZM100.572 49.522C100.572 50.182 100.356 50.7137 99.9234 51.117C99.4907 51.5203 98.8417 51.722 97.9764 51.722H96.4254V55H95.6554V47.311H97.9764C98.8344 47.311 99.4797 47.5127 99.9124 47.916C100.352 48.3193 100.572 48.8547 100.572 49.522ZM97.9764 51.062C99.1791 51.062 99.7804 50.5487 99.7804 49.522C99.7804 49.0087 99.6374 48.62 99.3514 48.356C99.0654 48.092 98.6071 47.96 97.9764 47.96H96.4254V51.062H97.9764ZM102.634 46.86V55H101.864V46.86H102.634ZM104.026 51.986C104.026 51.37 104.147 50.831 104.389 50.369C104.638 49.8997 104.979 49.5403 105.412 49.291C105.852 49.0343 106.347 48.906 106.897 48.906C107.469 48.906 107.96 49.038 108.371 49.302C108.789 49.566 109.09 49.9033 109.273 50.314V48.994H110.043V55H109.273V53.669C109.082 54.0797 108.778 54.4207 108.36 54.692C107.949 54.956 107.458 55.088 106.886 55.088C106.343 55.088 105.852 54.9597 105.412 54.703C104.979 54.4463 104.638 54.0833 104.389 53.614C104.147 53.1447 104.026 52.602 104.026 51.986ZM109.273 51.997C109.273 51.513 109.174 51.0877 108.976 50.721C108.778 50.3543 108.507 50.072 108.162 49.874C107.825 49.676 107.451 49.577 107.04 49.577C106.615 49.577 106.233 49.6723 105.896 49.863C105.559 50.0537 105.291 50.3323 105.093 50.699C104.902 51.0583 104.807 51.4873 104.807 51.986C104.807 52.4773 104.902 52.91 105.093 53.284C105.291 53.6507 105.559 53.933 105.896 54.131C106.233 54.3217 106.615 54.417 107.04 54.417C107.451 54.417 107.825 54.318 108.162 54.12C108.507 53.922 108.778 53.6397 108.976 53.273C109.174 52.9063 109.273 52.481 109.273 51.997ZM111.449 51.997C111.449 51.3737 111.574 50.831 111.823 50.369C112.072 49.8997 112.417 49.5403 112.857 49.291C113.297 49.0343 113.799 48.906 114.364 48.906C115.105 48.906 115.713 49.0893 116.19 49.456C116.674 49.8227 116.986 50.3213 117.125 50.952H116.3C116.197 50.5193 115.974 50.182 115.629 49.94C115.292 49.6907 114.87 49.566 114.364 49.566C113.961 49.566 113.598 49.6577 113.275 49.841C112.952 50.0243 112.696 50.2993 112.505 50.666C112.322 51.0253 112.23 51.469 112.23 51.997C112.23 52.525 112.322 52.9723 112.505 53.339C112.696 53.7057 112.952 53.9807 113.275 54.164C113.598 54.3473 113.961 54.439 114.364 54.439C114.87 54.439 115.292 54.318 115.629 54.076C115.974 53.8267 116.197 53.482 116.3 53.042H117.125C116.986 53.658 116.674 54.153 116.19 54.527C115.706 54.901 115.097 55.088 114.364 55.088C113.799 55.088 113.297 54.9633 112.857 54.714C112.417 54.4573 112.072 54.098 111.823 53.636C111.574 53.1667 111.449 52.6203 111.449 51.997ZM123.981 51.689C123.981 51.953 123.974 52.1547 123.959 52.294H118.976C118.998 52.7487 119.108 53.1373 119.306 53.46C119.504 53.7827 119.764 54.0283 120.087 54.197C120.41 54.3583 120.762 54.439 121.143 54.439C121.642 54.439 122.06 54.318 122.397 54.076C122.742 53.834 122.969 53.5077 123.079 53.097H123.893C123.746 53.6837 123.431 54.164 122.947 54.538C122.47 54.9047 121.869 55.088 121.143 55.088C120.578 55.088 120.072 54.9633 119.625 54.714C119.178 54.4573 118.826 54.098 118.569 53.636C118.32 53.1667 118.195 52.6203 118.195 51.997C118.195 51.3737 118.32 50.8273 118.569 50.358C118.818 49.8887 119.167 49.5293 119.614 49.28C120.061 49.0307 120.571 48.906 121.143 48.906C121.715 48.906 122.214 49.0307 122.639 49.28C123.072 49.5293 123.402 49.8667 123.629 50.292C123.864 50.71 123.981 51.1757 123.981 51.689ZM123.2 51.667C123.207 51.2197 123.116 50.8383 122.925 50.523C122.742 50.2077 122.489 49.9693 122.166 49.808C121.843 49.6467 121.491 49.566 121.11 49.566C120.538 49.566 120.05 49.7493 119.647 50.116C119.244 50.4827 119.02 50.9997 118.976 51.667H123.2ZM126.094 53.724L124.95 56.606H124.422L125.236 53.724H126.094ZM132.642 55.077C132.136 55.077 131.688 54.989 131.3 54.813C130.918 54.637 130.618 54.3913 130.398 54.076C130.178 53.7607 130.06 53.4087 130.046 53.02H130.86C130.896 53.394 131.061 53.724 131.355 54.01C131.648 54.2887 132.077 54.428 132.642 54.428C133.162 54.428 133.573 54.296 133.874 54.032C134.182 53.7607 134.336 53.4197 134.336 53.009C134.336 52.679 134.251 52.415 134.083 52.217C133.914 52.0117 133.705 51.8613 133.456 51.766C133.206 51.6633 132.862 51.5533 132.422 51.436C131.908 51.2967 131.501 51.161 131.201 51.029C130.9 50.897 130.643 50.6917 130.431 50.413C130.218 50.1343 130.112 49.7567 130.112 49.28C130.112 48.884 130.214 48.532 130.42 48.224C130.625 47.9087 130.915 47.663 131.289 47.487C131.663 47.311 132.092 47.223 132.576 47.223C133.287 47.223 133.859 47.399 134.292 47.751C134.732 48.0957 134.985 48.543 135.051 49.093H134.215C134.163 48.7777 133.991 48.499 133.698 48.257C133.404 48.0077 133.008 47.883 132.51 47.883C132.048 47.883 131.663 48.0077 131.355 48.257C131.047 48.499 130.893 48.8327 130.893 49.258C130.893 49.5807 130.977 49.841 131.146 50.039C131.314 50.237 131.523 50.3873 131.773 50.49C132.029 50.5927 132.374 50.7027 132.807 50.82C133.305 50.9593 133.709 51.0987 134.017 51.238C134.325 51.37 134.585 51.5753 134.798 51.854C135.01 52.1327 135.117 52.5067 135.117 52.976C135.117 53.3353 135.021 53.6763 134.831 53.999C134.64 54.3217 134.358 54.582 133.984 54.78C133.61 54.978 133.162 55.077 132.642 55.077ZM137.364 50.314C137.554 49.9107 137.855 49.577 138.266 49.313C138.684 49.0417 139.179 48.906 139.751 48.906C140.293 48.906 140.781 49.0343 141.214 49.291C141.654 49.5403 141.995 49.8997 142.237 50.369C142.486 50.831 142.611 51.37 142.611 51.986C142.611 52.602 142.486 53.1447 142.237 53.614C141.995 54.0833 141.654 54.4463 141.214 54.703C140.781 54.9597 140.293 55.088 139.751 55.088C139.186 55.088 138.695 54.956 138.277 54.692C137.859 54.4207 137.554 54.0833 137.364 53.68V57.838H136.605V48.994H137.364V50.314ZM141.83 51.986C141.83 51.4873 141.731 51.0583 141.533 50.699C141.342 50.3323 141.078 50.0537 140.741 49.863C140.403 49.6723 140.022 49.577 139.597 49.577C139.186 49.577 138.808 49.676 138.464 49.874C138.126 50.072 137.859 50.3543 137.661 50.721C137.463 51.0877 137.364 51.513 137.364 51.997C137.364 52.481 137.463 52.9063 137.661 53.273C137.859 53.6397 138.126 53.922 138.464 54.12C138.808 54.318 139.186 54.417 139.597 54.417C140.022 54.417 140.403 54.3217 140.741 54.131C141.078 53.933 141.342 53.6507 141.533 53.284C141.731 52.91 141.83 52.4773 141.83 51.986ZM149.461 51.689C149.461 51.953 149.454 52.1547 149.439 52.294H144.456C144.478 52.7487 144.588 53.1373 144.786 53.46C144.984 53.7827 145.245 54.0283 145.567 54.197C145.89 54.3583 146.242 54.439 146.623 54.439C147.122 54.439 147.54 54.318 147.877 54.076C148.222 53.834 148.449 53.5077 148.559 53.097H149.373C149.227 53.6837 148.911 54.164 148.427 54.538C147.951 54.9047 147.349 55.088 146.623 55.088C146.059 55.088 145.553 54.9633 145.105 54.714C144.658 54.4573 144.306 54.098 144.049 53.636C143.8 53.1667 143.675 52.6203 143.675 51.997C143.675 51.3737 143.8 50.8273 144.049 50.358C144.299 49.8887 144.647 49.5293 145.094 49.28C145.542 49.0307 146.051 48.906 146.623 48.906C147.195 48.906 147.694 49.0307 148.119 49.28C148.552 49.5293 148.882 49.8667 149.109 50.292C149.344 50.71 149.461 51.1757 149.461 51.689ZM148.68 51.667C148.688 51.2197 148.596 50.8383 148.405 50.523C148.222 50.2077 147.969 49.9693 147.646 49.808C147.324 49.6467 146.972 49.566 146.59 49.566C146.018 49.566 145.531 49.7493 145.127 50.116C144.724 50.4827 144.5 50.9997 144.456 51.667H148.68ZM150.518 51.997C150.518 51.3737 150.643 50.831 150.892 50.369C151.142 49.8997 151.486 49.5403 151.926 49.291C152.366 49.0343 152.869 48.906 153.433 48.906C154.174 48.906 154.783 49.0893 155.259 49.456C155.743 49.8227 156.055 50.3213 156.194 50.952H155.369C155.267 50.5193 155.043 50.182 154.698 49.94C154.361 49.6907 153.939 49.566 153.433 49.566C153.03 49.566 152.667 49.6577 152.344 49.841C152.022 50.0243 151.765 50.2993 151.574 50.666C151.391 51.0253 151.299 51.469 151.299 51.997C151.299 52.525 151.391 52.9723 151.574 53.339C151.765 53.7057 152.022 53.9807 152.344 54.164C152.667 54.3473 153.03 54.439 153.433 54.439C153.939 54.439 154.361 54.318 154.698 54.076C155.043 53.8267 155.267 53.482 155.369 53.042H156.194C156.055 53.658 155.743 54.153 155.259 54.527C154.775 54.901 154.167 55.088 153.433 55.088C152.869 55.088 152.366 54.9633 151.926 54.714C151.486 54.4573 151.142 54.098 150.892 53.636C150.643 53.1667 150.518 52.6203 150.518 51.997ZM158.001 47.861C157.847 47.861 157.715 47.806 157.605 47.696C157.495 47.586 157.44 47.4503 157.44 47.289C157.44 47.1277 157.495 46.9957 157.605 46.893C157.715 46.783 157.847 46.728 158.001 46.728C158.155 46.728 158.287 46.783 158.397 46.893C158.507 46.9957 158.562 47.1277 158.562 47.289C158.562 47.4503 158.507 47.586 158.397 47.696C158.287 47.806 158.155 47.861 158.001 47.861ZM158.386 48.994V55H157.616V48.994H158.386ZM159.778 51.986C159.778 51.37 159.899 50.831 160.141 50.369C160.39 49.8997 160.731 49.5403 161.164 49.291C161.604 49.0343 162.099 48.906 162.649 48.906C163.221 48.906 163.712 49.038 164.123 49.302C164.541 49.566 164.842 49.9033 165.025 50.314V48.994H165.795V55H165.025V53.669C164.834 54.0797 164.53 54.4207 164.112 54.692C163.701 54.956 163.21 55.088 162.638 55.088C162.095 55.088 161.604 54.9597 161.164 54.703C160.731 54.4463 160.39 54.0833 160.141 53.614C159.899 53.1447 159.778 52.602 159.778 51.986ZM165.025 51.997C165.025 51.513 164.926 51.0877 164.728 50.721C164.53 50.3543 164.259 50.072 163.914 49.874C163.577 49.676 163.203 49.577 162.792 49.577C162.367 49.577 161.985 49.6723 161.648 49.863C161.311 50.0537 161.043 50.3323 160.845 50.699C160.654 51.0583 160.559 51.4873 160.559 51.986C160.559 52.4773 160.654 52.91 160.845 53.284C161.043 53.6507 161.311 53.933 161.648 54.131C161.985 54.3217 162.367 54.417 162.792 54.417C163.203 54.417 163.577 54.318 163.914 54.12C164.259 53.922 164.53 53.6397 164.728 53.273C164.926 52.9063 165.025 52.481 165.025 51.997ZM168.323 46.86V55H167.553V46.86H168.323ZM177.584 47.311V47.949H175.45V55H174.68V47.949H172.535V47.311H177.584ZM178.448 51.986C178.448 51.37 178.569 50.831 178.811 50.369C179.06 49.8997 179.401 49.5403 179.834 49.291C180.274 49.0343 180.769 48.906 181.319 48.906C181.891 48.906 182.382 49.038 182.793 49.302C183.211 49.566 183.512 49.9033 183.695 50.314V48.994H184.465V55H183.695V53.669C183.504 54.0797 183.2 54.4207 182.782 54.692C182.371 54.956 181.88 55.088 181.308 55.088C180.765 55.088 180.274 54.9597 179.834 54.703C179.401 54.4463 179.06 54.0833 178.811 53.614C178.569 53.1447 178.448 52.602 178.448 51.986ZM183.695 51.997C183.695 51.513 183.596 51.0877 183.398 50.721C183.2 50.3543 182.929 50.072 182.584 49.874C182.247 49.676 181.873 49.577 181.462 49.577C181.037 49.577 180.655 49.6723 180.318 49.863C179.981 50.0537 179.713 50.3323 179.515 50.699C179.324 51.0583 179.229 51.4873 179.229 51.986C179.229 52.4773 179.324 52.91 179.515 53.284C179.713 53.6507 179.981 53.933 180.318 54.131C180.655 54.3217 181.037 54.417 181.462 54.417C181.873 54.417 182.247 54.318 182.584 54.12C182.929 53.922 183.2 53.6397 183.398 53.273C183.596 52.9063 183.695 52.481 183.695 51.997ZM188.291 55.088C187.601 55.088 187.037 54.9303 186.597 54.615C186.164 54.2923 185.922 53.856 185.871 53.306H186.663C186.699 53.6433 186.857 53.9183 187.136 54.131C187.422 54.3363 187.803 54.439 188.28 54.439C188.698 54.439 189.024 54.34 189.259 54.142C189.501 53.944 189.622 53.6983 189.622 53.405C189.622 53.1997 189.556 53.031 189.424 52.899C189.292 52.767 189.123 52.6643 188.918 52.591C188.72 52.5103 188.448 52.426 188.104 52.338C187.656 52.2207 187.293 52.1033 187.015 51.986C186.736 51.8687 186.498 51.6963 186.3 51.469C186.109 51.2343 186.014 50.9227 186.014 50.534C186.014 50.2407 186.102 49.9693 186.278 49.72C186.454 49.4707 186.703 49.2727 187.026 49.126C187.348 48.9793 187.715 48.906 188.126 48.906C188.771 48.906 189.292 49.071 189.688 49.401C190.084 49.7237 190.296 50.171 190.326 50.743H189.556C189.534 50.391 189.394 50.1087 189.138 49.896C188.888 49.676 188.544 49.566 188.104 49.566C187.715 49.566 187.4 49.6577 187.158 49.841C186.916 50.0243 186.795 50.2517 186.795 50.523C186.795 50.7577 186.864 50.952 187.004 51.106C187.15 51.2527 187.33 51.37 187.543 51.458C187.755 51.5387 188.041 51.6303 188.401 51.733C188.833 51.8503 189.178 51.964 189.435 52.074C189.691 52.184 189.911 52.3453 190.095 52.558C190.278 52.7707 190.373 53.053 190.381 53.405C190.381 53.7277 190.293 54.0173 190.117 54.274C189.941 54.5233 189.695 54.7213 189.38 54.868C189.064 55.0147 188.701 55.088 188.291 55.088ZM192.831 49.643V53.372C192.831 53.7387 192.901 53.9917 193.04 54.131C193.18 54.2703 193.425 54.34 193.777 54.34H194.481V55H193.656C193.114 55 192.71 54.8753 192.446 54.626C192.182 54.3693 192.05 53.9513 192.05 53.372V49.643H191.214V48.994H192.05V47.487H192.831V48.994H194.481V49.643H192.831ZM201.185 51.689C201.185 51.953 201.178 52.1547 201.163 52.294H196.18C196.202 52.7487 196.312 53.1373 196.51 53.46C196.708 53.7827 196.968 54.0283 197.291 54.197C197.614 54.3583 197.966 54.439 198.347 54.439C198.846 54.439 199.264 54.318 199.601 54.076C199.946 53.834 200.173 53.5077 200.283 53.097H201.097C200.95 53.6837 200.635 54.164 200.151 54.538C199.674 54.9047 199.073 55.088 198.347 55.088C197.782 55.088 197.276 54.9633 196.829 54.714C196.382 54.4573 196.03 54.098 195.773 53.636C195.524 53.1667 195.399 52.6203 195.399 51.997C195.399 51.3737 195.524 50.8273 195.773 50.358C196.022 49.8887 196.371 49.5293 196.818 49.28C197.265 49.0307 197.775 48.906 198.347 48.906C198.919 48.906 199.418 49.0307 199.843 49.28C200.276 49.5293 200.606 49.8667 200.833 50.292C201.068 50.71 201.185 51.1757 201.185 51.689ZM200.404 51.667C200.411 51.2197 200.32 50.8383 200.129 50.523C199.946 50.2077 199.693 49.9693 199.37 49.808C199.047 49.6467 198.695 49.566 198.314 49.566C197.742 49.566 197.254 49.7493 196.851 50.116C196.448 50.4827 196.224 50.9997 196.18 51.667H200.404Z" fill="#FA942A"/>
</svg>
